# xmcd
#
# Track frame offsets:
#	150
#	22322
#	43920
#	62651
#	84402
#	107612
#	128193
#	148892
#	208277
#
# Disc length: 3546 seconds
#
# Revision: 0
# Processed by: cddbd v1.5.2PL0 Copyright (c) Steve Scherf et al.
# Submitted via: EZCDAudioConverter 2.0.7.1
#
DISCID=8a0dd809
DTITLE=Patience Dabany - La Mama - La Locomotive
DYEAR=1900
DGENRE=
TTITLE0=Tchiki Tchiki
TTITLE1=Kongobe Princesse
TTITLE2=Le Jazz de la Mama feat. Hayo'e
TTITLE3=On Vous Connait
TTITLE4=Soleil
TTITLE5=Lalala
TTITLE6=Mariage feat. Jacob Desvarieux
TTITLE7=La Mama en Troubadour (Medley)
TTITLE8=La Mama 100% Chauffe
EXTD=
EXTT0=
EXTT1=
EXTT2=
EXTT3=
EXTT4=
EXTT5=
EXTT6=
EXTT7=
EXTT8=
PLAYORDER=
